<?xml version="1.0" encoding="UTF-8"?>
<svg width="34.9223956px" height="38.6821905px" viewBox="0 0 34.9223956 38.6821905" version="1.1" xmlns="http://www.w3.org/2000/svg" xmlns:xlink="http://www.w3.org/1999/xlink">
    <title>USP / support in 30s / light</title>
    <defs>
        <linearGradient x1="40.331472%" y1="40.7883191%" x2="118.219624%" y2="112.384507%" id="linearGradient-1">
            <stop stop-color="#FFB400" offset="0%"></stop>
            <stop stop-color="#FF6F00" offset="100%"></stop>
        </linearGradient>
    </defs>
    <g id="Print" stroke="none" stroke-width="1" fill="none" fill-rule="evenodd">
        <g id="未登录" transform="translate(-987.5, -549.75)">
            <g id="编组-63" transform="translate(0, 482)">
                <g id="编组-38备份" transform="translate(380, 0)">
                    <g id="General-/-not-timely-check-/-filled备份" transform="translate(604, 66)">
                        <path d="M29.6723956,22.9321905 C34.5048872,22.9321905 38.4223956,26.849699 38.4223956,31.6821905 C38.4223956,36.5146821 34.5048872,40.4321905 29.6723956,40.4321905 C24.8399041,40.4321905 20.9223956,36.5146821 20.9223956,31.6821905 C20.9223956,26.849699 24.8399041,22.9321905 29.6723956,22.9321905 Z M27.125,27.125 L27.125,34.125 L34.125,34.125 L34.1196823,33.9606243 C34.0350387,32.6565359 32.9504834,31.625 31.625,31.625 L29.625,31.625 L29.625,29.625 C29.625,28.2442881 28.5057119,27.125 27.125,27.125 Z" id="形状结合" fill="url(#linearGradient-1)"></path>
                        <polygon id="Path" fill="#06AEBD" points="3.5 23.625 11.4526044 1.75 26.3276044 1.75 21.0776044 14 31.5776044 14 7.95260438 39.1928095 12.3276044 23.625"></polygon>
                    </g>
                </g>
            </g>
        </g>
    </g>
</svg>