<?xml version="1.0" encoding="UTF-8"?>
<svg width="115.618842px" height="27.8534766px" viewBox="0 0 115.618842 27.8534766" version="1.1" xmlns="http://www.w3.org/2000/svg" xmlns:xlink="http://www.w3.org/1999/xlink">
    <title>编组 17</title>
    <defs>
        <polygon id="path-1" points="0 27.8534033 115.618901 27.8534033 115.618901 2.93193411e-05 0 2.93193411e-05"></polygon>
    </defs>
    <g id="Print" stroke="none" stroke-width="1" fill="none" fill-rule="evenodd">
        <g id="未登录" transform="translate(-380, -488)">
            <g id="编组-63" transform="translate(0, 482)">
                <g id="编组-38备份" transform="translate(380, 0)">
                    <g id="编组" transform="translate(0, 6)">
                        <path d="M43.7097786,17.6780527 C41.8929318,17.6780527 40.4197651,16.1453841 40.4197651,14.254873 C40.4197651,12.3645085 41.8929318,10.83184 43.7097786,10.83184 C45.5266254,10.83184 46.9997921,12.3645085 46.9997921,14.254873 C46.9997921,16.1453841 45.5266254,17.6780527 43.7097786,17.6780527 M44.1798225,6.51793872 C42.4930128,6.51793872 40.9834064,7.28375991 39.9498681,8.49127697 L39.9498681,7.22116312 L35.7199137,7.22116312 L35.7199137,27.8534766 L40.4197651,27.8534766 L40.4197651,20.6297774 C41.4500708,21.4803314 42.7563197,21.9919539 44.1798225,21.9919539 C48.3327831,21.9919539 51.6996435,18.5278738 51.6996435,14.254873 C51.6996435,9.98172567 48.3327831,6.51793872 44.1798225,6.51793872" id="Fill-1" fill="#3264FF"></path>
                        <path d="M56.6345609,21.9920712 C55.0772006,21.9920712 53.8145913,20.7323657 53.8145913,19.1785872 C53.8145913,17.6246622 55.0772006,16.3651033 56.6345609,16.3651033 C58.1920681,16.3651033 59.4545305,17.6246622 59.4545305,19.1785872 C59.4545305,20.7323657 58.1920681,21.9920712 56.6345609,21.9920712 Z" id="Fill-3" fill="#FFB400"></path>
                        <path d="M27.4479637,2.62584018 C27.4479637,1.17570558 28.6263795,0 30.0800039,0 C31.5336283,0 32.7120441,1.17570558 32.7120441,2.62584018 C32.7120441,4.07612139 31.5336283,5.25182696 30.0800039,5.25182696 C28.6263795,5.25182696 27.4479637,4.07612139 27.4479637,2.62584018 Z" id="Fill-5" fill="#3264FF"></path>
                        <mask id="mask-2" fill="white">
                            <use xlink:href="#path-1"></use>
                        </mask>
                        <g id="Clip-8"></g>
                        <polygon id="Fill-7" fill="#3264FF" mask="url(#mask-2)" points="27.7300929 21.2886562 32.4299443 21.2886562 32.4299443 7.22138301 27.7300929 7.22138301"></polygon>
                        <polygon id="Fill-9" fill="#3264FF" mask="url(#mask-2)" points="2.93869275e-05 0.656445386 2.93869275e-05 4.59535226 6.1100125 4.59535226 6.1100125 21.2886123 10.8098639 21.2886123 10.8098639 4.59535226 16.9197001 4.59535226 16.9197001 0.656445386"></polygon>
                        <path d="M69.3244682,17.6780527 C67.5073275,17.6780527 66.0344547,16.1455307 66.0344547,14.2550196 C66.0344547,12.3645085 67.5073275,10.83184 69.3244682,10.83184 C70.257797,10.83184 71.0984101,11.2380594 71.6971687,11.8876294 L74.807922,8.78403059 C73.4045492,7.38388546 71.4658936,6.51793872 69.3244682,6.51793872 C65.0414704,6.51793872 61.5695518,9.98201887 61.5695518,14.2550196 C61.5695518,18.5280204 65.0414704,21.9921005 69.3244682,21.9921005 C71.4658936,21.9921005 73.4045492,21.1260072 74.807922,19.7258621 L71.6971687,16.6222632 C71.0984101,17.2718332 70.257797,17.6780527 69.3244682,17.6780527" id="Fill-10" fill="#3264FF" mask="url(#mask-2)"></path>
                        <path d="M110.463669,6.51773349 C108.562188,6.51773349 107.013056,7.23444478 106.083254,8.82252689 C105.238233,7.34688445 103.68866,6.51773349 101.87196,6.51773349 C100.026902,6.51773349 98.6324921,7.36975354 97.7591126,8.81710281 L97.7591126,7.22125108 L93.5291583,7.22125108 L93.5291583,12.0497068 L93.5291583,21.2886709 L98.2291566,21.2886709 L98.2291566,12.5147115 C98.2291566,11.3263986 99.1551387,10.3629651 100.297115,10.3629651 C101.439238,10.3629651 102.36522,11.3263986 102.36522,12.5147115 L102.36522,21.2886709 L106.783104,21.2886709 L106.782957,12.5147115 C106.782957,11.3263986 107.708792,10.3629651 108.851062,10.3629651 C109.993185,10.3629651 110.91902,11.3263986 110.91902,12.5147115 L110.91902,21.2886709 L115.618871,21.2886709 L115.618871,11.6327857 C115.618871,8.4570613 113.61865,6.51773349 110.463669,6.51773349" id="Fill-11" fill="#3264FF" mask="url(#mask-2)"></path>
                        <path d="M83.4243162,17.6780527 C81.6071755,17.6780527 80.1343027,16.1455307 80.1343027,14.2550196 C80.1343027,12.3645085 81.6071755,10.83184 83.4243162,10.83184 C85.2414568,10.83184 86.7143297,12.3645085 86.7143297,14.2550196 C86.7143297,16.1455307 85.2414568,17.6780527 83.4243162,17.6780527 M83.4243162,6.51793872 C79.1413184,6.51793872 75.6693998,9.98201887 75.6693998,14.2550196 C75.6693998,18.5280204 79.1413184,21.9921005 83.4243162,21.9921005 C87.707167,21.9921005 91.1792326,18.5280204 91.1792326,14.2550196 C91.1792326,9.98201887 87.707167,6.51793872 83.4243162,6.51793872" id="Fill-12" fill="#3264FF" mask="url(#mask-2)"></path>
                        <path d="M24.4394623,7.14849513 C22.6650795,7.14849513 21.1078662,8.06531093 20.2096548,9.44801105 L20.2096548,7.22164689 L15.9797004,7.22164689 L15.9797004,14.2552102 L15.9797004,21.2886269 L20.6795518,21.2886269 L20.6958615,21.2886269 L20.6958615,15.3854708 C20.6958615,12.9601749 22.4633383,11.4467105 24.6437014,11.4467105 C24.8965759,11.4467105 25.1404874,11.4795482 25.3795501,11.5258727 L25.3795501,7.22179349 C25.0712812,7.17942704 24.759339,7.14849513 24.4394623,7.14849513" id="Fill-13" fill="#3264FF" mask="url(#mask-2)"></path>
                    </g>
                </g>
            </g>
        </g>
    </g>
</svg>