<?xml version="1.0" encoding="UTF-8"?>
<svg width="36.75px" height="39.675px" viewBox="0 0 36.75 39.675" version="1.1" xmlns="http://www.w3.org/2000/svg" xmlns:xlink="http://www.w3.org/1999/xlink">
    <title>编组 6</title>
    <defs>
        <path d="M21,2.625 C31.1482323,2.625 39.375,10.8517677 39.375,21 C39.375,31.1482323 31.1482323,39.375 21,39.375 C10.8517677,39.375 2.625,31.1482323 2.625,21 C2.625,10.8517677 10.8517677,2.625 21,2.625 Z M25.3585674,28.4371884 L16.6414326,28.4371884 C17.5867642,30.9635858 19.0379789,33.369576 21,35.6611134 C22.9620211,33.369576 24.4132358,30.9635858 25.3585674,28.4371884 Z M13.8600585,28.4376666 L8.11532807,28.4380496 C10.1238667,31.9098716 13.4953538,34.4945553 17.4981376,35.4604486 C15.8764349,33.2271511 14.6627112,30.8851055 13.8600585,28.4376666 Z M33.8846719,28.4380496 L28.1399415,28.4376666 C27.3372888,30.8851055 26.1235651,33.2271511 24.5018819,35.4600403 C28.5046462,34.4945553 31.8761333,31.9098716 33.8846719,28.4380496 Z M13.1650354,16.1875988 L6.92060474,16.1878593 C6.40485817,17.6972286 6.125,19.3159321 6.125,21 C6.125,22.6840679 6.40485817,24.3027714 6.92060474,25.8121407 L13.1650354,25.8124012 C12.8469262,24.2480335 12.6875,22.6436001 12.6875,21 C12.6875,19.3563999 12.8469262,17.7519665 13.1650354,16.1875988 Z M26.1487647,16.1869578 L15.8512353,16.1869578 C15.4917276,17.7471036 15.3125,19.3510267 15.3125,21 C15.3125,22.6489733 15.4917276,24.2528964 15.8512353,25.8130422 L26.1487647,25.8130422 C26.5082724,24.2528964 26.6875,22.6489733 26.6875,21 C26.6875,19.3510267 26.5082724,17.7471036 26.1487647,16.1869578 Z M35.0793953,16.1878593 L28.8349646,16.1875988 C29.1530738,17.7519665 29.3125,19.3563999 29.3125,21 C29.3125,22.6436001 29.1530738,24.2480335 28.8349646,25.8124012 L35.0793953,25.8121407 C35.5951418,24.3027714 35.875,22.6840679 35.875,21 C35.875,19.3159321 35.5951418,17.6972286 35.0793953,16.1878593 Z M17.4981181,6.53995969 L17.3373869,6.57929626 C13.4051414,7.57495198 10.0969219,10.1367032 8.11532807,13.5619504 L13.8600585,13.5623334 C14.6627112,11.1148945 15.8764349,8.77284889 17.4981181,6.53995969 Z M21,6.33888664 C19.0379789,8.63042396 17.5867642,11.0364142 16.6414326,13.5628116 L25.3585674,13.5628116 C24.4132358,11.0364142 22.9620211,8.63042396 21,6.33888664 Z M24.5018624,6.53955135 L24.5410997,6.59408977 C26.1431461,8.81069168 27.3437723,11.1346638 28.1399415,13.5623334 L33.8846719,13.5619504 C31.8761333,10.0901284 28.5046462,7.50544469 24.5018624,6.53955135 Z" id="path-1"></path>
        <linearGradient x1="40.331472%" y1="48.5261311%" x2="118.219624%" y2="59.9815212%" id="linearGradient-3">
            <stop stop-color="#FFB400" offset="0%"></stop>
            <stop stop-color="#FF6F00" offset="100%"></stop>
        </linearGradient>
    </defs>
    <g id="Print" stroke="none" stroke-width="1" fill="none" fill-rule="evenodd">
        <g id="未登录" transform="translate(-692.625, -550.625)">
            <g id="编组-63" transform="translate(0, 482)">
                <g id="编组-38备份" transform="translate(380, 0)">
                    <g id="编组-6" transform="translate(310, 66)">
                        <g id="General-/-web-/-outlined">
                            <mask id="mask-2" fill="white">
                                <use xlink:href="#path-1"></use>
                            </mask>
                            <use id="形状结合" fill="#06AEBD" fill-rule="nonzero" xlink:href="#path-1"></use>
                        </g>
                        <path d="M24.0415018,28.6061771 C24.6490314,28.4561942 25.2618973,28.5581376 25.7665781,28.8467972 C26.2727261,29.1362961 26.669985,29.6134157 26.8452081,30.2124324 C27.0207302,30.812471 26.948391,31.4289741 26.6847409,31.9498699 L26.59,32.119 L31.0717404,30.6269659 C32.2165336,30.2769885 33.3573526,30.3732659 34.3218116,30.8029659 L34.5257192,30.9001067 C35.7152693,31.5044697 36.6050273,32.6327131 36.8501652,34.076252 L20.5489409,41.1417536 C18.9365405,41.8406224 17.0998365,41.8177649 15.5055398,41.0790178 L8.36859509,37.7719814 C7.2016064,37.1201652 6.44879828,36.1564898 6.11721396,35.1131933 C5.76880242,34.0169517 5.88175772,32.826257 6.48657396,31.7827278 L6.84495058,31.164397 C7.38686739,30.2293923 8.24701648,29.5831097 9.21558023,29.2899246 C10.1831321,28.9970457 11.2586687,29.0566627 12.2320515,29.5322442 C13.9789742,30.3857667 15.9732305,30.5980191 17.8624028,30.1316327 Z" id="路径-2备份-2" stroke="#F5F7FA" stroke-width="1.3" fill="url(#linearGradient-3)"></path>
                    </g>
                </g>
            </g>
        </g>
    </g>
</svg>