<?xml version="1.0" encoding="UTF-8"?>
<svg width="35px" height="39.6666667px" viewBox="0 0 35 39.6666667" version="1.1" xmlns="http://www.w3.org/2000/svg" xmlns:xlink="http://www.w3.org/1999/xlink">
    <title>USP / reach us / light</title>
    <defs>
        <linearGradient x1="40.331472%" y1="40.7883191%" x2="118.219624%" y2="112.384507%" id="linearGradient-1">
            <stop stop-color="#FFB400" offset="0%"></stop>
            <stop stop-color="#FF6F00" offset="100%"></stop>
        </linearGradient>
    </defs>
    <g id="Print" stroke="none" stroke-width="1" fill="none" fill-rule="evenodd">
        <g id="未登录" transform="translate(-1287, -546)">
            <g id="编组-63" transform="translate(0, 482)">
                <g id="编组-38备份" transform="translate(380, 0)">
                    <g id="General-/-mobile-/-filled" transform="translate(900, 64)">
                        <g id="编组-29" transform="translate(7, 0)">
                            <path d="M24,6.66666667 L24,39.6666667 L0,39.6666667 L0,6.66666667 L24,6.66666667 Z M12,34.0416667 C10.9644661,34.0416667 10.125,34.8811328 10.125,35.9166667 C10.125,36.9522006 10.9644661,37.7916667 12,37.7916667 C13.0355339,37.7916667 13.875,36.9522006 13.875,35.9166667 C13.875,34.8811328 13.0355339,34.0416667 12,34.0416667 Z M21,11.1656667 L2.999,11.1656667 L2.999,32.1666667 L21,32.1666667 L21,11.1656667 Z" id="General-/-mobile-/-filled" fill="#06AEBD"></path>
                            <path d="M35,14.5 C35,16.3416143 32.8667615,17.7455205 32.2025507,19.3468844 C31.5141924,21.0069354 32.0038682,23.5020553 30.7530856,24.7531304 C29.5019974,26.0038998 27.0068511,25.5142291 25.3467826,26.2025802 C23.7454018,26.8664784 22.3414809,29 20.4998472,29 C18.6585191,29 17.2542925,26.8664784 15.6529117,26.2025802 C13.9928432,25.5142291 11.497697,26.0038998 10.2469144,24.7528247 C8.99582609,23.5020553 9.48550198,21.0069354 8.79714361,19.3468844 C8.13323847,17.7455205 6,16.3416143 6,14.5 C6,12.6583857 8.13323847,11.2544795 8.79714361,9.65311565 C9.48550198,7.99306463 8.99582609,5.49794469 10.2469144,4.2468696 C11.4980026,2.99610017 13.9931489,3.4857709 15.6529117,2.79741979 C17.2542925,2.13352165 18.6585191,0 20.4998472,0 C22.3414809,0 23.7454018,2.13352165 25.3467826,2.79741979 C27.0068511,3.4857709 29.5019974,2.99610017 30.7530856,4.24717526 C32.0041739,5.49794469 31.5141924,7.99306463 32.2025507,9.65311565 C32.8667615,11.2544795 35,12.6583857 35,14.5" id="形状结合" fill="url(#linearGradient-1)"></path>
                            <path d="M27,18.5705877 C27,18.9124773 26.9354384,19.2336044 26.8063134,19.5339788 C26.6771883,19.8343532 26.5005577,20.0968716 26.2764161,20.3215419 C26.0522745,20.5462122 25.7903738,20.7232595 25.4907063,20.8526891 C25.1910387,20.9821188 24.8706672,21.0468326 24.5295822,21.0468326 C24.1836245,21.0468326 23.8608167,20.9821188 23.5611491,20.8526891 C23.2614816,20.7232595 22.9983628,20.5462122 22.7717849,20.3215419 C22.5452069,20.0968716 22.3673581,19.8343532 22.2382331,19.5339788 C22.109108,19.2336044 22.0445465,18.9124773 22.0445465,18.5705877 C22.0445465,18.2286981 22.109108,17.907571 22.2382331,17.6071966 C22.3673581,17.3068222 22.5452069,17.0430827 22.7717849,16.8159704 C22.9983628,16.588858 23.2614816,16.4093687 23.5611491,16.277497 C23.8608167,16.1456253 24.1836245,16.0796905 24.5295822,16.0796905 C24.8706672,16.0796905 25.1910387,16.1456253 25.4907063,16.277497 C25.7903738,16.4093687 26.0522745,16.588858 26.2764161,16.8159704 C26.5005577,17.0430827 26.6771883,17.3068222 26.8063134,17.6071966 C26.9354384,17.907571 27,18.2286981 27,18.5705877 Z M25.4530339,8 L18.1884229,22 L15.2848368,22 L22.5615461,8 L25.4530339,8 Z M18.9554535,11.4617505 C18.9554535,11.8085242 18.890892,12.1320934 18.7617669,12.4324678 C18.6326419,12.7328422 18.4547931,12.9965816 18.2282151,13.2236939 C18.0016372,13.4508063 17.7373003,13.6290746 17.4351964,13.7585042 C17.1330925,13.8879338 16.8115029,13.9526477 16.4704178,13.9526477 C16.1293328,13.9526477 15.8089613,13.8879338 15.5092937,13.7585042 C15.2096262,13.6290746 14.9477255,13.4508063 14.7235839,13.2236939 C14.4994423,12.9965816 14.3228117,12.7328422 14.1936866,12.4324678 C14.0645616,12.1320934 14,11.8085242 14,11.4617505 C14,11.1198609 14.0645616,10.7987337 14.1936866,10.4983593 C14.3228117,10.1979849 14.4994423,9.93546652 14.7235839,9.71079624 C14.9477255,9.48612595 15.2096262,9.30907865 15.5092937,9.17964903 C15.8089613,9.05021941 16.1293328,8.98550557 16.4704178,8.98550557 C16.8115029,8.98550557 17.1330925,9.05021941 17.4351964,9.17964903 C17.7373003,9.30907865 18.0016372,9.48612595 18.2282151,9.71079624 C18.4547931,9.93546652 18.6326419,10.1979849 18.7617669,10.4983593 C18.890892,10.7987337 18.9554535,11.1198609 18.9554535,11.4617505 Z" id="%备份" fill="#FFFFFF" fill-rule="nonzero"></path>
                        </g>
                        <g id="编组备份" transform="translate(15, -0.3333)"></g>
                    </g>
                </g>
            </g>
        </g>
    </g>
</svg>