<svg xmlns="http://www.w3.org/2000/svg" viewBox="0 0 134.6 32.5"><defs><style>.cls-1,.cls-3{fill:#047bc1;}.cls-2{fill:#fcaf17;}.cls-3{fill-rule:evenodd;}</style></defs><g id="Layer_2" data-name="Layer 2"><g id="Layer_1-2" data-name="Layer 1"><path class="cls-1" d="M51.43,7.61a6.45,6.45,0,0,0-4.92,2.3V8.43H41.58V32.5h5.48V24.07a6.8,6.8,0,0,0,4.37,1.59,8.89,8.89,0,0,0,8.76-9,8.89,8.89,0,0,0-8.76-9m8.76,9a8.89,8.89,0,0,0-8.76-9m-.54,13a4,4,0,1,1,3.83-4,3.91,3.91,0,0,1-3.83,4"/><path class="cls-2" d="M69.22,22.38a3.29,3.29,0,1,1-3.29-3.28,3.28,3.28,0,0,1,3.29,3.28"/><path class="cls-3" d="M35,6.13a3.07,3.07,0,1,1,3.06-3.07A3.06,3.06,0,0,1,35,6.13"/><rect class="cls-1" x="32.28" y="8.43" width="5.47" height="16.42"/><polygon class="cls-3" points="0 0.77 0 5.36 7.11 5.36 7.11 24.84 12.59 24.84 12.59 5.36 19.7 5.36 19.7 0.77 0 0.77"/><path class="cls-1" d="M80.71,20.63a4,4,0,0,1,0-8,3.74,3.74,0,0,1,2.76,1.23l3.62-3.62a9,9,0,1,0,0,12.77L83.47,19.4a3.78,3.78,0,0,1-2.76,1.23"/><path class="cls-3" d="M128.6,7.6a5.53,5.53,0,0,0-5.1,2.69,5.46,5.46,0,0,0-4.9-2.69,5.34,5.34,0,0,0-4.79,2.69V8.43h-4.92V24.84h5.47V14.6a2.41,2.41,0,1,1,4.81,0V24.84h5.15V14.6a2.41,2.41,0,1,1,4.81,0V24.84h5.47V13.57c0-3.7-2.32-6-6-6"/><path class="cls-1" d="M97.12,7.61a9,9,0,1,0,9,9,9,9,0,0,0-9-9m0,13a4,4,0,1,1,3.83-4,3.92,3.92,0,0,1-3.83,4"/><path class="cls-1" d="M28.45,8.34A5.86,5.86,0,0,0,23.53,11V8.43H18.6V24.84h5.5V18a4.41,4.41,0,0,1,4.59-4.59,4.92,4.92,0,0,1,.86.09v-5a7.9,7.9,0,0,0-1.1-.09"/></g></g></svg>